<?xml version="1.0" encoding="UTF-8"?>
<svg viewBox="0 0 256 256" xmlns="http://www.w3.org/2000/svg">
 <g transform="matrix(25.88 0 0 -25.88 225.38 256)">
  <path d="m0,0c.652,0 1.182.529 1.182,1.182v7.528c0,.652-.53,1.182-1.182,1.182h-7.527c-.653,0-1.182-.53-1.182-1.182v-7.528c0-.653.529-1.182 1.182-1.182h7.527z" fill="#231f20"/>
 </g>
 <g transform="matrix(25.88 0 0 -25.88 30.579 5.1912)">
  <path d="m0,0c-.541,0-.982-.44-.982-.981v-7.529c0-.541.441-.98.982-.98h7.527c.541,0 .981.439.981.98v7.529c0,.541-.44.981-.981.981h-7.527z" fill="#fff"/>
 </g>
 <g transform="matrix(25.88 0 0 -25.88 146.02 91.018)">
  <path d="m0,0c.629,0 1.174-.342 1.475-.846l1.773-.002v.952c0,.353-.287.64-.641.64h-6.611c-.353,0-.639-.287-.639-.64l.002-.944 3.166-.002c.303.502.846.842 1.475.842" fill="#231f20"/>
 </g>
 <g transform="matrix(25.88 0 0 -25.88 68.793 63.951)">
  <path d="m0,0h-.588l-.068-.212h.705l-.049.212z" fill="#231f20"/>
 </g>
 <g transform="matrix(25.88 0 0 -25.88 206.02 61.021)">
  <path d="m0,0h-.783l-.139-.327h1.049l-.127.327z" fill="#231f20"/>
 </g>
 <path d="m136.46 66.554h-17.443v-8.4367h17.443v8.4367zm15.994-11.827h-49.249l-10.145 14.855h68.684l-9.2907-14.855z" fill="#231f20"/>
 <g transform="matrix(25.88 0 0 -25.88 186.57 117.3)">
  <path d="m0,0c.098-.216.156-.454.156-.707 0-.951-.771-1.723-1.722-1.723s-1.723.772-1.723,1.723c0,.253.057.491.156.708h-3.076v-2.596c0-.352.285-.639.639-.639h6.611c.354,0 .641.287.641.639l.002,2.595h-1.684z" fill="#231f20"/>
 </g>
 <g transform="matrix(25.88 0 0 -25.88 170.34 120.94)">
  <path d="m0,0c-.027.048-.061.093-.098.136-.201.242-.502.4-.841.4s-.641-.157-.842-.398c-.037-.044-.071-.089-.1-.138-.101-.166-.162-.358-.162-.566 0-.609.494-1.102 1.104-1.102s1.101.493 1.101,1.102c0,.208-.06.4-.162.566" fill="#231f20"/>
 </g>
</svg>
